<?xml version="1.0" standalone="no"?>
<!DOCTYPE svg PUBLIC "-//W3C//DTD SVG 20010904//EN"
 "http://www.w3.org/TR/2001/REC-SVG-20010904/DTD/svg10.dtd">
<svg version="1.0" xmlns="http://www.w3.org/2000/svg"
 width="256.000000pt" height="256.000000pt" viewBox="0 0 256.000000 256.000000"
 preserveAspectRatio="xMidYMid meet">
<metadata>
Created by potrace 1.14, written by Peter Selinger 2001-2017
</metadata>
<g transform="translate(0.000000,256.000000) scale(0.100000,-0.100000)"
fill="#000000" stroke="none">
<path d="M908 2356 c-355 -180 -578 -302 -647 -355 -39 -30 -18 -41 73 -41
137 0 244 33 494 154 450 217 548 216 940 -1 181 -100 286 -143 385 -158 l47
-7 0 45 c0 62 -24 87 -140 145 -93 47 -446 254 -624 366 -50 31 -99 55 -110
55 -12 -1 -200 -92 -418 -203z"/>
<path d="M1142 2130 c-400 -72 -695 -422 -695 -825 0 -580 563 -983 1110 -796
220 75 411 255 501 472 48 116 66 222 59 358 -7 134 -24 204 -77 316 -48 101
-82 151 -156 227 -160 164 -346 246 -574 253 -63 2 -139 0 -168 -5z m296 -56
c97 -20 162 -48 185 -80 l19 -25 -39 17 c-62 27 -144 51 -199 59 l-52 7 -16
-49 c-16 -47 -19 -50 -82 -73 -45 -17 -73 -35 -91 -58 -33 -43 -20 -57 15 -15
17 20 52 42 93 58 49 19 68 33 77 53 9 20 11 22 8 5 -2 -13 2 -24 11 -27 9 -4
13 -13 9 -23 -4 -10 -4 -14 0 -10 12 12 44 -46 45 -83 1 -23 3 -28 6 -12 5 26
33 30 33 4 0 -32 27 -60 53 -55 14 3 24 11 23 20 0 9 5 18 12 20 7 3 10 -1 6
-10 -3 -10 3 -16 22 -20 22 -4 35 3 68 34 35 35 38 39 18 39 -24 0 -29 19 -10
38 6 6 9 15 5 19 -10 10 -56 -37 -55 -56 1 -9 0 -24 0 -34 -2 -17 -3 -17 -31
-1 -25 15 -32 15 -45 5 -14 -12 -16 -10 -16 14 0 35 65 102 112 116 30 9 35 7
60 -23 39 -46 102 -171 128 -253 12 -40 24 -111 27 -165 l6 -95 -22 28 c-44
54 -51 -7 -8 -65 23 -31 20 -88 -8 -173 -21 -61 -75 -174 -88 -182 -5 -3 -4 4
2 16 8 14 8 21 1 21 -5 0 -10 -4 -10 -9 0 -6 -21 -29 -46 -53 -26 -24 -50 -52
-54 -63 -6 -15 -8 -10 -8 20 -1 64 -13 123 -27 135 -10 8 -11 19 -5 35 19 51
-74 75 -154 40 -16 -7 -27 -1 -54 31 -18 21 -42 55 -52 75 -17 32 -17 39 -5
56 21 30 8 34 -21 8 -14 -13 -43 -33 -64 -44 -37 -19 -42 -19 -92 -5 -29 8
-84 19 -123 23 -38 5 -92 19 -118 31 -54 24 -117 77 -118 100 0 10 -3 8 -9 -5
-7 -17 -9 -14 -9 14 -1 32 27 74 84 131 52 51 64 60 79 60 19 0 56 34 56 52 0
6 -10 2 -23 -10 -13 -12 -31 -22 -40 -22 -10 0 -27 -11 -39 -25 -12 -14 -27
-25 -35 -25 -7 0 -20 -14 -29 -32 -9 -17 -29 -42 -45 -55 -22 -19 -29 -34 -29
-61 l-1 -37 -14 26 c-15 27 -57 46 -63 29 -2 -6 -10 -10 -19 -10 -8 0 -28 -9
-44 -21 -26 -18 -30 -26 -27 -63 2 -33 7 -42 24 -44 11 -2 27 4 34 13 21 25
32 17 28 -20 -3 -29 -1 -35 14 -35 12 0 18 -8 18 -22 0 -32 11 -45 40 -53 19
-5 31 0 50 19 27 30 42 32 61 10 8 -10 24 -14 45 -12 28 3 33 0 43 -28 7 -20
20 -34 36 -38 13 -3 26 -15 30 -26 3 -11 40 -37 86 -62 77 -41 79 -43 73 -73
-3 -16 -12 -37 -20 -46 -8 -8 -14 -34 -14 -57 0 -55 -18 -92 -44 -92 -23 0
-51 -35 -41 -50 3 -6 1 -18 -5 -27 -10 -17 -10 -16 -8 2 3 17 -5 21 -57 28
-33 5 -75 10 -92 10 -31 2 -33 4 -33 41 0 32 -7 45 -46 85 -87 87 -97 134 -52
239 23 54 23 52 -6 52 -14 0 -40 15 -62 35 -20 20 -49 38 -63 41 -14 4 -37 13
-50 21 l-24 16 6 -86 c7 -82 34 -190 64 -252 13 -27 13 -28 -2 -11 -11 15 -15
16 -15 5 -1 -28 -41 63 -62 139 -15 58 -21 111 -22 212 -1 118 2 144 23 205
50 146 136 284 223 359 24 20 52 43 62 53 17 14 60 39 151 86 115 60 330 83
483 51z m-583 -1394 c3 -5 -1 -10 -9 -10 -9 0 -16 5 -16 10 0 6 4 10 9 10 6 0
13 -4 16 -10z"/>
<path d="M990 1990 l-45 -19 33 0 c25 -1 32 -5 32 -21 0 -11 4 -20 9 -20 5 0
7 8 4 18 -7 29 42 47 73 27 13 -8 24 -12 24 -7 0 10 -54 42 -72 41 -7 0 -33
-9 -58 -19z"/>
<path d="M894 1916 c-21 -20 -39 -36 -40 -36 -2 0 1 12 7 27 l10 27 -23 -25
c-13 -13 -40 -35 -60 -48 -35 -21 -53 -61 -28 -61 6 0 10 6 10 14 0 19 70 60
96 57 13 -1 27 8 38 23 17 28 45 33 77 15 24 -12 16 -29 -14 -30 -22 0 -22 -1
2 -12 19 -9 25 -8 35 4 6 9 16 14 22 12 12 -4 40 25 31 33 -3 3 -14 0 -25 -7
-16 -10 -24 -9 -48 8 -16 11 -35 23 -41 27 -8 4 -27 -7 -49 -28z"/>
<path d="M1352 1885 c-14 -8 -19 -15 -13 -19 13 -8 51 10 51 24 0 13 -9 11
-38 -5z"/>
<path d="M940 1834 c0 -8 5 -12 10 -9 6 3 10 10 10 16 0 5 -4 9 -10 9 -5 0
-10 -7 -10 -16z"/>
<path d="M988 1803 c5 -21 7 -23 10 -9 2 10 0 22 -6 28 -6 6 -7 0 -4 -19z"/>
<path d="M1423 1763 c-15 -32 -8 -43 13 -21 11 11 13 21 8 31 -8 13 -11 11
-21 -10z"/>
<path d="M810 1766 c0 -8 5 -18 10 -21 6 -3 10 3 10 14 0 12 -4 21 -10 21 -5
0 -10 -6 -10 -14z"/>
<path d="M1018 1750 c-2 -6 -27 -14 -56 -19 -29 -4 -59 -14 -65 -20 -9 -10 -1
-11 38 -6 54 8 105 30 105 45 0 13 -17 13 -22 0z"/>
<path d="M1466 1735 c-11 -8 -16 -18 -12 -22 3 -4 16 3 29 15 24 25 12 29 -17
7z"/>
<path d="M1026 1694 c-4 -10 -1 -14 6 -12 15 5 23 28 10 28 -5 0 -13 -7 -16
-16z"/>
<path d="M1436 1675 c4 -8 8 -15 10 -15 2 0 4 7 4 15 0 8 -4 15 -10 15 -5 0
-7 -7 -4 -15z"/>
<path d="M1530 1653 c-8 -3 -34 -25 -58 -50 -35 -38 -44 -43 -57 -33 -9 7 -18
10 -22 6 -15 -15 14 -21 89 -18 80 3 82 2 115 -30 26 -26 36 -30 42 -19 9 13
24 13 94 -5 22 -5 34 -1 53 17 23 22 24 24 8 36 -10 7 -28 13 -40 13 -12 0
-32 12 -43 26 -22 28 -41 25 -41 -8 0 -17 -2 -18 -15 -8 -8 7 -15 20 -15 30 0
9 -9 25 -20 35 -23 21 -26 14 -8 -15 11 -16 10 -23 -6 -37 -18 -17 -19 -17
-12 1 4 13 -2 26 -19 42 -14 13 -27 24 -28 23 -1 0 -9 -3 -17 -6z"/>
<path d="M560 1015 c0 -5 5 -17 10 -25 5 -8 10 -10 10 -5 0 6 -5 17 -10 25 -5
8 -10 11 -10 5z"/>
<path d="M2394 1742 c-24 -16 -73 -122 -88 -189 -9 -40 -23 -166 -31 -281 -21
-297 -46 -410 -116 -516 -48 -72 -177 -185 -294 -256 -322 -197 -388 -248
-467 -369 -41 -63 -60 -111 -43 -111 2 0 44 17 92 39 123 54 262 132 518 291
121 76 258 159 305 184 92 51 125 78 145 116 9 18 15 130 21 385 16 648 10
743 -42 707z"/>
<path d="M155 1670 c-28 -30 -29 -34 -30 -128 0 -53 6 -182 13 -287 6 -104 12
-267 12 -361 0 -94 3 -192 6 -218 6 -43 11 -49 53 -73 25 -14 172 -101 326
-193 154 -92 326 -193 381 -224 114 -62 269 -136 289 -136 44 0 7 88 -72 172
-70 73 -130 116 -338 243 -245 149 -338 231 -404 354 -57 107 -67 160 -86 435
-8 115 -22 238 -31 274 -21 85 -60 172 -77 172 -7 0 -26 -14 -42 -30z"/>
</g>
</svg>
