<?xml version="1.0" encoding="UTF-8"?>
<svg width="237.5mm" height="45.707mm" version="1.1" viewBox="0 0 237.5 45.707" xmlns="http://www.w3.org/2000/svg" xmlns:xlink="http://www.w3.org/1999/xlink"><defs><radialGradient id="radialGradient6711" cx="18.248" cy="15.716" r="29.993" gradientTransform="scale(.99999 1)" gradientUnits="userSpaceOnUse"><stop stop-color="#d3e9ff" offset="0"/><stop stop-color="#d3e9ff" offset=".15517"/><stop stop-color="#4074ae" offset=".75"/><stop stop-color="#36486c" offset="1"/></radialGradient><radialGradient id="radialGradient6713" cx="11.827" cy="10.476" r="32.665" gradientTransform="scale(1.1795 .84779)" gradientUnits="userSpaceOnUse"><stop stop-color="#fff" offset="0"/><stop stop-color="#fff" stop-opacity="0" offset="1"/></radialGradient><radialGradient id="radialGradient6795" cx="18.634" cy="17.486" r="40.693" fx="18.934" fy="17.81" gradientTransform="scale(1.0368 .96449)" gradientUnits="userSpaceOnUse" xlink:href="#linearGradient4750-0-2"/><linearGradient id="linearGradient4750-0-2"><stop stop-color="#fff" offset="0"/><stop stop-color="#fefefe" offset=".37931"/><stop stop-color="#1d1d1d" offset="1"/></linearGradient><radialGradient id="radialGradient6797-0" cx="15.601" cy="12.142" r="43.527" gradientTransform="scale(.99999 1)" gradientUnits="userSpaceOnUse"><stop stop-color="#fff" offset="0"/><stop stop-color="#fff" stop-opacity=".16495" offset="1"/></radialGradient><radialGradient id="radialGradient6799" cx="299.46" cy="206" r="67.406" gradientTransform="matrix(-1.5489 -6.9786e-8 8.5723e-8 -2.3162 763.3 683.12)" gradientUnits="userSpaceOnUse"><stop stop-color="#2e3436" offset="0"/><stop stop-color="#2e3436" stop-opacity="0" offset="1"/></radialGradient></defs><g transform="translate(65.617 -69.585)"><g fill="#3e79bc" opacity=".86164" stroke="#000" stroke-width=".40037" aria-label="OpenSceneGraph"><path d="m-5.8661 88.189q0.98831 1.0861 1.5096 2.6608 0.53217 1.5748 0.53217 3.5731 0 1.9983-0.54303 3.584-0.53217 1.5748-1.4988 2.6283-0.99917 1.0969-2.3676 1.6508-1.3576 0.55389-3.1061 0.55389-1.7051 0-3.1061-0.56475-1.3902-0.56475-2.3676-1.64-0.97745-1.0752-1.5096-2.6391-0.52131-1.5639-0.52131-3.5731 0-1.9766 0.52131-3.5406 0.52131-1.5748 1.5205-2.6934 0.95573-1.0643 2.3676-1.6291 1.4227-0.56475 3.0953-0.56475 1.7377 0 3.117 0.57561 1.3902 0.56475 2.3567 1.6182zm-0.19549 6.234q0-3.1496-1.4119-4.8547-1.4119-1.716-3.8555-1.716-2.4654 0-3.8772 1.716-1.401 1.7051-1.401 4.8547 0 3.1822 1.4336 4.8764 1.4336 1.6834 3.8447 1.6834 2.4111 0 3.8338-1.6834 1.4336-1.6943 1.4336-4.8764zm16.161 1.868q0 1.477-0.42356 2.7043-0.42356 1.2164-1.1947 2.0635-0.7168 0.80369-1.6943 1.249-0.96659 0.43443-2.0527 0.43443-0.94487 0-1.716-0.20636-0.76024-0.20635-1.5531-0.64077v5.0828h-2.0418v-16.606h2.0418v1.2707q0.81454-0.68422 1.8246-1.1404 1.0209-0.46701 2.1721-0.46701 2.1938 0 3.4102 1.6617 1.2272 1.6508 1.2272 4.594zm-2.107 0.0543q0-2.1938-0.74938-3.2799-0.74938-1.0861-2.3024-1.0861-0.87971 0-1.7703 0.38012-0.89057 0.38012-1.7051 0.99917v6.8748q0.86885 0.39098 1.4879 0.53217 0.62991 0.14118 1.4227 0.14118 1.7051 0 2.6608-1.1512 0.95573-1.1512 0.95573-3.4102zm15.444 0.3041h-8.9383q0 1.1186 0.33668 1.9549 0.33668 0.8254 0.92315 1.3576 0.56475 0.52131 1.3359 0.78197 0.78196 0.26065 1.716 0.26065 1.2381 0 2.4871-0.48873 1.2598-0.49958 1.792-0.97745h0.10861v2.2264q-1.0318 0.43443-2.107 0.72766-1.0752 0.29324-2.259 0.29324-3.0192 0-4.7135-1.6291-1.6943-1.64-1.6943-4.6483 0-2.9758 1.6182-4.7244 1.6291-1.7486 4.2791-1.7486 2.4545 0 3.7795 1.4336 1.3359 1.4336 1.3359 4.0727zm-1.9875-1.5639q-0.01086-1.6074-0.81454-2.4871-0.79282-0.87971-2.4219-0.87971-1.64 0-2.6174 0.96659-0.96659 0.96659-1.0969 2.4002zm15.227 7.4178h-2.0418v-6.9073q0-0.83627-0.09774-1.5639-0.09775-0.73852-0.3584-1.1512-0.27152-0.45614-0.78196-0.67336-0.51045-0.22807-1.325-0.22807-0.83626 0-1.7486 0.4127-0.91229 0.4127-1.7486 1.0535v9.0577h-2.0418v-12.131h2.0418v1.3467q0.95573-0.79282 1.9766-1.2381 1.0209-0.44528 2.0961-0.44528 1.9658 0 2.9975 1.1838 1.0318 1.1838 1.0318 3.4102z"/><path d="m52.52 97.888q0 0.94487-0.44528 1.868-0.43442 0.92315-1.2272 1.5639-0.86885 0.69508-2.0309 1.0861-1.1512 0.39098-2.7803 0.39098-1.7486 0-3.1496-0.32582-1.3902-0.32582-2.8346-0.96659v-2.6934h0.15205q1.2272 1.0209 2.8346 1.5748 1.6074 0.55389 3.0192 0.55389 1.9984 0 3.1061-0.74938 1.1186-0.74939 1.1186-1.9984 0-1.0752-0.53217-1.5856-0.52131-0.51045-1.5965-0.79282-0.81454-0.21721-1.7703-0.3584-0.94487-0.14119-2.0092-0.3584-2.1504-0.45614-3.193-1.5531-1.0318-1.1078-1.0318-2.8781 0-2.0309 1.716-3.3233 1.716-1.3033 4.3551-1.3033 1.7051 0 3.1279 0.32582t2.5197 0.80368v2.5414h-0.15205q-0.92315-0.78196-2.4328-1.2924-1.4988-0.52131-3.0735-0.52131-1.7268 0-2.7803 0.7168-1.0426 0.7168-1.0426 1.8463 0 1.01 0.52131 1.5856 0.52131 0.57561 1.8354 0.87971 0.69508 0.15205 1.9766 0.36926 1.2816 0.21721 2.1721 0.44528 1.8029 0.47787 2.7151 1.4445 0.91229 0.96659 0.91229 2.7043zm12.262 3.8555q-1.0209 0.48873-1.944 0.76024-0.91229 0.27152-1.944 0.27152-1.3141 0-2.4111-0.38012-1.0969-0.39099-1.8789-1.173-0.79282-0.78196-1.2272-1.9766-0.43442-1.1947-0.43442-2.7912 0-2.9758 1.6291-4.6701 1.64-1.6943 4.3225-1.6943 1.0426 0 2.0418 0.29324 1.01 0.29324 1.8463 0.7168v2.2699h-0.10861q-0.93401-0.72766-1.9332-1.1186-0.98831-0.39098-1.9332-0.39098-1.7377 0-2.7477 1.1729-0.99917 1.1621-0.99917 3.4211 0 2.1938 0.97745 3.3776 0.98832 1.1729 2.7695 1.1729 0.61905 0 1.2598-0.16291 0.64078-0.16291 1.1512-0.42356 0.44528-0.22807 0.83626-0.47787 0.39098-0.26065 0.61905-0.44528h0.10861zm12.772-5.0936h-8.9383q0 1.1186 0.33668 1.9549 0.33668 0.8254 0.92315 1.3576 0.56475 0.52131 1.3359 0.78197 0.78196 0.26065 1.716 0.26065 1.2381 0 2.4871-0.48873 1.2598-0.49958 1.792-0.97745h0.10861v2.2264q-1.0318 0.43443-2.107 0.72766-1.0752 0.29324-2.259 0.29324-3.0192 0-4.7135-1.6291-1.6943-1.64-1.6943-4.6483 0-2.9758 1.6182-4.7244 1.6291-1.7486 4.2791-1.7486 2.4545 0 3.7795 1.4336 1.3359 1.4336 1.3359 4.0727zm-1.9875-1.5639q-0.01086-1.6074-0.81454-2.4871-0.79282-0.87971-2.4219-0.87971-1.64 0-2.6174 0.96659-0.96659 0.96659-1.0969 2.4002zm15.227 7.4178h-2.0418v-6.9073q0-0.83627-0.09775-1.5639-0.09775-0.73852-0.3584-1.1512-0.27152-0.45614-0.78196-0.67336-0.51045-0.22807-1.325-0.22807-0.83627 0-1.7486 0.4127-0.91229 0.4127-1.7486 1.0535v9.0577h-2.0418v-12.131h2.0418v1.3467q0.95573-0.79282 1.9766-1.2381 1.0209-0.44528 2.0961-0.44528 1.9658 0 2.9975 1.1838 1.0318 1.1838 1.0318 3.4102zm14.086-5.8539h-8.9383q0 1.1186 0.33668 1.9549 0.33668 0.8254 0.92315 1.3576 0.56475 0.52131 1.3359 0.78197 0.78196 0.26065 1.716 0.26065 1.2381 0 2.4871-0.48873 1.2598-0.49958 1.792-0.97745h0.1086v2.2264q-1.0318 0.43443-2.107 0.72766-1.0752 0.29324-2.259 0.29324-3.0192 0-4.7135-1.6291-1.6943-1.64-1.6943-4.6483 0-2.9758 1.6182-4.7244 1.6291-1.7486 4.2791-1.7486 2.4545 0 3.7795 1.4336 1.3358 1.4336 1.3358 4.0727zm-1.9875-1.5639q-0.0109-1.6074-0.81455-2.4871-0.79282-0.87971-2.4219-0.87971-1.64 0-2.6174 0.96659-0.96659 0.96659-1.0969 2.4002z"/><path d="m121.63 101.31q-1.325 0.60819-2.8998 1.0643-1.5639 0.44529-3.0301 0.44529-1.8897 0-3.4645-0.52131-1.5748-0.52131-2.6826-1.5639-1.1186-1.0535-1.7268-2.6283-0.60819-1.5856-0.60819-3.7035 0-3.8772 2.259-6.1145 2.2699-2.2481 6.2231-2.2481 1.3793 0 2.8129 0.33668 1.4445 0.32582 3.1061 1.1186v2.5522h-0.19549q-0.33668-0.26066-0.97746-0.68422-0.64077-0.42356-1.2598-0.70594-0.74938-0.33668-1.7051-0.55389-0.94487-0.22807-2.1504-0.22807-2.7152 0-4.3008 1.7486-1.5748 1.7377-1.5748 4.7135 0 3.1387 1.6508 4.8873 1.6508 1.7377 4.4963 1.7377 1.0426 0 2.0744-0.20635 1.0426-0.20636 1.8246-0.53217v-3.9641h-4.3334v-1.8897h6.4621zm11.165-8.7102h-0.1086q-0.45615-0.10861-0.89057-0.15205-0.42356-0.0543-1.01-0.0543-0.94487 0-1.8246 0.42356-0.8797 0.4127-1.6942 1.0752v8.6124h-2.0418v-12.131h2.0418v1.792q1.2164-0.97745 2.1395-1.3793 0.93401-0.4127 1.9006-0.4127 0.53217 0 0.7711 0.03258 0.23894 0.02172 0.7168 0.09775zm10.958 9.9049h-2.0309v-1.2924q-0.27152 0.18463-0.73852 0.52131-0.45615 0.32582-0.89057 0.52131-0.51045 0.24979-1.173 0.4127-0.66249 0.17377-1.5531 0.17377-1.64 0-2.7803-1.0861-1.1404-1.0861-1.1404-2.7695 0-1.3793 0.58647-2.2264 0.59734-0.85799 1.6943-1.3467 1.1078-0.48873 2.6608-0.6625 1.5531-0.17377 3.3342-0.26066v-0.31496q0-0.69508-0.2498-1.1512-0.23893-0.45614-0.69508-0.7168-0.43442-0.24979-1.0426-0.33668-0.6082-0.08689-1.2707-0.08689-0.80369 0-1.792 0.21721-0.98832 0.20635-2.0418 0.60819h-0.10861v-2.0744q0.59733-0.16291 1.7268-0.3584 1.1295-0.19549 2.2264-0.19549 1.2816 0 2.2264 0.21721 0.95573 0.20635 1.6508 0.7168 0.68422 0.49959 1.0426 1.2924 0.3584 0.79282 0.3584 1.9658zm-2.0309-2.9867v-3.3776q-0.93402 0.0543-2.2047 0.16291-1.2598 0.10861-1.9983 0.31496-0.87971 0.24979-1.4227 0.78196-0.54303 0.52131-0.54303 1.4445 0 1.0426 0.62991 1.5748 0.62992 0.52131 1.9223 0.52131 1.0752 0 1.9658-0.41271 0.89056-0.42356 1.6508-1.01zm16.638-3.2256q0 1.477-0.42356 2.7043-0.42357 1.2164-1.1947 2.0635-0.7168 0.80369-1.6942 1.249-0.96659 0.43443-2.0526 0.43443-0.94487 0-1.716-0.20636-0.76024-0.20635-1.5531-0.64077v5.0828h-2.0418v-16.606h2.0418v1.2707q0.81454-0.68422 1.8246-1.1404 1.0209-0.46701 2.1721-0.46701 2.1938 0 3.4102 1.6617 1.2272 1.6508 1.2272 4.594zm-2.107 0.0543q0-2.1938-0.74939-3.2799-0.74938-1.0861-2.3024-1.0861-0.87971 0-1.7703 0.38012-0.89057 0.38012-1.7051 0.99917v6.8748q0.86885 0.39098 1.4879 0.53217 0.62991 0.14118 1.4227 0.14118 1.7051 0 2.6608-1.1512 0.95574-1.1512 0.95574-3.4102zm15.433 6.158h-2.0418v-6.9073q0-0.83627-0.0977-1.5639-0.0977-0.73852-0.3584-1.1512-0.27152-0.45614-0.78196-0.67336-0.51045-0.22807-1.325-0.22807-0.83626 0-1.7486 0.4127-0.91229 0.4127-1.7486 1.0535v9.0577h-2.0418v-16.899h2.0418v6.1145q0.95573-0.79282 1.9766-1.2381 1.0209-0.44528 2.0961-0.44528 1.9658 0 2.9975 1.1838t1.0318 3.4102z"/></g><g transform="matrix(.27111 0 0 .27111 -214.14 -68.059)"><path d="m695.2 569.71c-6.7884 21.66 1.7759 48.828-17.201 65.684-14.429 14.687-38.254 19.106-47.302 39.221 20.956-8.4549 39.331-22.451 58.975-33.61 7.2992-2.8849 11.694-7.3957 9.5443-15.488-0.6559-19.737 2.4068-39.649 1.0105-59.218-0.16967-8.3758-3.073 1.6106-5.0271 3.4107z" fill="#6d98c7" fill-rule="evenodd" opacity=".869" stroke="#000" stroke-width="1.809"/><path d="m549.66 568.86c-2.5488 8.865 1.2432 19.873 0.6263 29.486 0.55348 12.232 0.8644 24.473 0.83859 36.718 22.893 12.41 44.254 27.966 68.099 38.387 1.6795-1.0167-4.3637-9.0102-7.7554-11.83-16.212-14.374-41.731-20.268-49.712-42.529-6.0344-16.709-0.38567-36.473-9.1528-52.316-0.5213-1.7009-2.1662 1.9526-2.9443 2.085z" fill="#8ac834" fill-rule="evenodd" opacity=".86924" stroke="#000" stroke-width="1.8089"/><g transform="matrix(.79186 0 0 .79186 386.64 442.42)"><g transform="matrix(3.5269 0 0 3.5269 213.89 105.42)"><path d="m43.96 23.485c0 10.71-8.6821 19.392-19.39 19.392-10.709 0-19.391-8.6821-19.391-19.392 0-10.709 8.6816-19.39 19.391-19.39 10.708 0 19.39 8.6811 19.39 19.39z" fill="url(#radialGradient6711)" stroke="#39396c"/><ellipse transform="matrix(.83594 0 0 1 9.8869 0)" cx="17.779" cy="15.271" rx="12.93" ry="9.2934" fill="url(#radialGradient6713)" opacity=".42159"/><g transform="matrix(.98237 0 0 .98237 .12108 .23291)" fill-opacity=".71345"><path d="m44.071 20.714v0l-0.5449 0.6172c-0.334-0.3936-0.709-0.7246-1.0898-1.0703l-0.8359 0.123-0.7637-0.8633v1.0684l0.6543 0.4951 0.4355 0.4932 0.582-0.6582c0.1465 0.2744 0.291 0.5488 0.4365 0.8232v0.8223l-0.6553 0.7402-1.1992 0.8232-0.9082 0.9063-0.582-0.6602 0.291-0.7402-0.5811-0.6582-0.9814-2.0977-0.8359-0.9453-0.2188 0.2461 0.3281 1.1934 0.6172 0.6992c0.3525 1.0176 0.7012 1.9902 1.1641 2.9629 0.7178 0 1.3945-0.0762 2.1074-0.166v0.5762l-0.8721 2.1392-0.7998 0.9043-0.6543 1.4004v2.3027l0.2188 0.9063-0.3633 0.4102-0.8008 0.4941-0.8359 0.6992 0.6914 0.7813-0.9453 0.8242 0.1816 0.5332-1.418 1.6055h-0.9443l-0.7998 0.4941h-0.5098v-0.6582l-0.2168-1.3184c-0.2813-0.8262-0.5742-1.6465-0.8721-2.4668 0-0.6055 0.0361-1.2051 0.0723-1.8105l0.3643-0.8223-0.5098-0.9883 0.0371-1.3574-0.6914-0.7813 0.3457-1.1309-0.5625-0.6382h-0.9824l-0.3271-0.3701-0.9814 0.6177-0.3994-0.4536-0.9092 0.7817c-0.6172-0.6997-1.2354-1.3989-1.8535-2.0981l-0.7266-1.7285 0.6543-0.9863-0.3633-0.4111 0.7988-1.8936c0.6563-0.8164 1.3418-1.5996 2.0352-2.3857l1.2363-0.3291 1.3809-0.1641 0.9453 0.2471 1.3447 1.3564 0.4727-0.5342 0.6533-0.082 1.2363 0.4111h0.9453l0.6543-0.5762 0.291-0.4111-0.6553-0.4111-1.0908-0.082c-0.3027-0.4199-0.584-0.8613-0.9434-1.2344l-0.3643 0.1641-0.1455 1.0703-0.6543-0.7402-0.1445-0.8242-0.7266-0.5742h-0.292l0.7275 0.8223-0.291 0.7402-0.5811 0.1641 0.3633-0.7402-0.6553-0.3281-0.5801-0.6582-1.0918 0.2461-0.1445 0.3281-0.6543 0.4121-0.3633 0.9053-0.9082 0.4521-0.4004-0.4521h-0.4355v-1.4814l0.9453-0.4941h0.7266l-0.1465-0.5752-0.5801-0.5762 0.9805-0.2061 0.5449-0.6162 0.4355-0.7412h0.8008l-0.2188-0.5752 0.5098-0.3291v0.6582l1.0898 0.2461 1.0898-0.9043 0.0732-0.4121 0.9443-0.6577c-0.3418 0.0425-0.6836 0.0737-1.0176 0.1646v-0.7411l0.3633-0.8228h-0.3633l-0.7984 0.7402-0.2188 0.4116 0.2188 0.5767-0.3643 0.9863-0.5811-0.3291-0.5078-0.5752-0.8008 0.5752-0.291-1.3159 1.3809-0.9048v-0.4941l0.873-0.5757 1.3809-0.3296 0.9453 0.3296 1.7441 0.3291-0.4355 0.4932h-0.9453l0.9453 0.9873 0.7266-0.8223 0.2207-0.3618s2.7871 2.498 4.3799 5.2305c1.5928 2.7334 2.3408 5.9551 2.3408 6.6094z"/><path d="m26.07 9.2363-0.0732 0.4932 0.5098 0.3291 0.8711-0.5757-0.4355-0.4937-0.582 0.3296-0.29-0.0825"/><path d="m26.87 5.8633-1.8906-0.7407-2.1797 0.2466-2.6904 0.7402-0.5088 0.4941 1.6719 1.1514v0.6582l-0.6543 0.6582 0.873 1.729 0.5801-0.3301 0.7285-1.1514c1.123-0.3472 2.1299-0.7407 3.1973-1.2344l0.873-2.2212"/><path d="m28.833 12.775-0.291-0.7412-0.5098 0.165 0.1465 0.9043 0.6543-0.3281"/><path d="m29.123 12.609-0.1455 0.9883 0.7998-0.165 0.5811-0.5752-0.5088-0.4941c-0.1709-0.4551-0.3672-0.8799-0.5811-1.3164h-0.4355v0.4932l0.29 0.3291v0.7402"/><path d="m18.365 28.242-0.582-1.1523-1.0903-0.2466-0.5815-1.5625-1.4536 0.1641-1.2354-0.9043-1.3091 1.1514v0.1816c-0.396-0.1143-0.8828-0.1299-1.2354-0.3467l-0.291-0.8223v-0.9053l-0.8721 0.082c0.0728-0.5762 0.145-1.1514 0.2183-1.7275h-0.5093l-0.5083 0.6582-0.5093 0.2461-0.7271-0.4102-0.0728-0.9053 0.1455-0.9873 1.0908-0.8223h0.8721l0.145-0.4941 1.0903 0.2461 0.7998 0.9883 0.1455-1.6465 1.3813-1.1514 0.5088-1.2344 1.0176-0.4111 0.5815-0.8223 1.3081-0.248 0.6548-0.9863h-1.9629l1.2358-0.5762h0.8716l1.2363-0.4121 0.1455-0.4922-0.4365-0.4121-0.5088-0.165 0.1455-0.4932-0.3633-0.7402-0.8726 0.3281 0.1455-0.6577-1.0176-0.5762-0.7993 1.3979 0.0723 0.4941-0.7993 0.3301-0.5093 1.0693-0.2178-0.9873-1.3813-0.5762-0.2183-0.7402 1.8174-1.0703 0.7998-0.7402 0.0728-0.9048-0.436-0.2471-0.5815-0.0825-0.3633 0.9053s-0.6079 0.1191-0.7642 0.1577c-1.9961 1.8394-6.0293 5.8101-6.9663 13.306 0.0371 0.1738 0.6792 1.1816 0.6792 1.1816l1.5264 0.9043 1.5264 0.4121 0.6548 0.8232 1.0171 0.7402 0.5815-0.082 0.436 0.1963v0.1328l-0.5811 1.563-0.4365 0.6582 0.1455 0.3301-0.3633 1.2324 1.3086 2.3867 1.3081 1.1523 0.582 0.8223-0.0732 1.7285 0.4365 0.9863-0.4365 1.8926s-0.0342-0.0117 0.0215 0.1777c0.0562 0.1895 2.3291 1.4512 2.4736 1.3438 0.144-0.1094 0.2671-0.2051 0.2671-0.2051l-0.145-0.4102 0.5811-0.5762 0.2183-0.5762 0.9453-0.3301 0.7266-1.8105-0.2178-0.4922 0.5078-0.7402 1.0908-0.248 0.582-1.3164-0.1455-1.6445 0.8721-1.2344 0.1455-1.2344c-1.1934-0.5918-2.377-1.2012-3.5615-1.8105"/><path d="m16.766 9.5649 0.7266 0.4937h0.582v-0.5757l-0.7266-0.3291-0.582 0.4111"/><path d="m14.876 8.9072-0.3638 0.9048h0.7271l0.3638-0.8228c0.3135-0.2217 0.6255-0.4448 0.9448-0.6582l0.7271 0.2471c0.4844 0.3291 0.9688 0.6582 1.4536 0.9868l0.7275-0.6577-0.8003-0.3291-0.3638-0.7407-1.3809-0.1646-0.0728-0.4116-0.6543 0.165-0.2904 0.5758-0.3638-0.7407-0.145 0.3291 0.0728 0.8228-0.5816 0.494"/><g opacity=".75"></g><g opacity=".75"></g><path d="m17.492 6.8496 0.3638-0.3286 0.7271-0.1646c0.498-0.2422 0.998-0.4053 1.5264-0.5762l-0.29-0.4937-0.9385 0.1348-0.4434 0.4419-0.731 0.106-0.6499 0.3052-0.3159 0.1528-0.1929 0.2583 0.9443 0.1641"/><path d="m18.728 14.666 0.4365-0.6582-0.6548-0.4932 0.2183 1.1514"/></g><g transform="matrix(.98237 0 0 .98237 -.080952 .030883)" color="#000000" fill="url(#radialGradient6795)" stroke-width="1.018"><g color="#000000" fill="url(#radialGradient6795)"><g color="#000000"><path d="m44.071 20.714v0l-0.5449 0.6172c-0.334-0.3936-0.709-0.7246-1.0898-1.0703l-0.8359 0.123-0.7637-0.8633v1.0684l0.6543 0.4951 0.4355 0.4932 0.582-0.6582c0.1465 0.2744 0.291 0.5488 0.4365 0.8232v0.8223l-0.6553 0.7402-1.1992 0.8232-0.9082 0.9063-0.582-0.6602 0.291-0.7402-0.5811-0.6582-0.9814-2.0977-0.8359-0.9453-0.2188 0.2461 0.3281 1.1934 0.6172 0.6992c0.3525 1.0176 0.7012 1.9902 1.1641 2.9629 0.7178 0 1.3945-0.0762 2.1074-0.166v0.5762l-0.8721 2.1392-0.7998 0.9043-0.6543 1.4004v2.3027l0.2188 0.9063-0.3633 0.4102-0.8008 0.4941-0.8359 0.6992 0.6914 0.7813-0.9453 0.8242 0.1816 0.5332-1.418 1.6055h-0.9443l-0.7998 0.4941h-0.5098v-0.6582l-0.2168-1.3184c-0.2813-0.8262-0.5742-1.6465-0.8721-2.4668 0-0.6055 0.0361-1.2051 0.0723-1.8105l0.3643-0.8223-0.5098-0.9883 0.0371-1.3574-0.6914-0.7813 0.3457-1.1309-0.5625-0.6382h-0.9824l-0.3271-0.3701-0.9814 0.6177-0.3994-0.4536-0.9092 0.7817c-0.6172-0.6997-1.2354-1.3989-1.8535-2.0981l-0.7266-1.7285 0.6543-0.9863-0.3633-0.4111 0.7988-1.8936c0.6563-0.8164 1.3418-1.5996 2.0352-2.3857l1.2363-0.3291 1.3809-0.1641 0.9453 0.2471 1.3447 1.3564 0.4727-0.5342 0.6533-0.082 1.2363 0.4111h0.9453l0.6543-0.5762 0.291-0.4111-0.6553-0.4111-1.0908-0.082c-0.3027-0.4199-0.584-0.8613-0.9434-1.2344l-0.3643 0.1641-0.1455 1.0703-0.6543-0.7402-0.1445-0.8242-0.7266-0.5742h-0.292l0.7275 0.8223-0.291 0.7402-0.5811 0.1641 0.3633-0.7402-0.6553-0.3281-0.5801-0.6582-1.0918 0.2461-0.1445 0.3281-0.6543 0.4121-0.3633 0.9053-0.9082 0.4521-0.4004-0.4521h-0.4355v-1.4814l0.9453-0.4941h0.7266l-0.1465-0.5752-0.5801-0.5762 0.9805-0.2061 0.5449-0.6162 0.4355-0.7412h0.8008l-0.2188-0.5752 0.5098-0.3291v0.6582l1.0898 0.2461 1.0898-0.9043 0.0732-0.4121 0.9443-0.6577c-0.3418 0.0425-0.6836 0.0737-1.0176 0.1646v-0.7411l0.3633-0.8228h-0.3633l-0.7984 0.7402-0.2188 0.4116 0.2188 0.5767-0.3643 0.9863-0.5811-0.3291-0.5078-0.5752-0.8008 0.5752-0.291-1.3159 1.3809-0.9048v-0.4941l0.873-0.5757 1.3809-0.3296 0.9453 0.3296 1.7441 0.3291-0.4355 0.4932h-0.9453l0.9453 0.9873 0.7266-0.8223 0.2207-0.3618s2.7871 2.498 4.3799 5.2305c1.5928 2.7334 2.3408 5.9551 2.3408 6.6094z" color="#000000"/><path d="m26.07 9.2363-0.0732 0.4932 0.5098 0.3291 0.8711-0.5757-0.4355-0.4937-0.582 0.3296-0.29-0.0825" color="#000000"/><path d="m26.87 5.8633-1.8906-0.7407-2.1797 0.2466-2.6904 0.7402-0.5088 0.4941 1.6719 1.1514v0.6582l-0.6543 0.6582 0.873 1.729 0.5801-0.3301 0.7285-1.1514c1.123-0.3472 2.1299-0.7407 3.1973-1.2344l0.873-2.2212" color="#000000"/><path d="m28.833 12.775-0.291-0.7412-0.5098 0.165 0.1465 0.9043 0.6543-0.3281" color="#000000"/><path d="m29.123 12.609-0.1455 0.9883 0.7998-0.165 0.5811-0.5752-0.5088-0.4941c-0.1709-0.4551-0.3672-0.8799-0.5811-1.3164h-0.4355v0.4932l0.29 0.3291v0.7402" color="#000000"/><path d="m18.365 28.242-0.582-1.1523-1.0903-0.2466-0.5815-1.5625-1.4536 0.1641-1.2354-0.9043-1.3091 1.1514v0.1816c-0.396-0.1143-0.8828-0.1299-1.2354-0.3467l-0.291-0.8223v-0.9053l-0.8721 0.082c0.0728-0.5762 0.145-1.1514 0.2183-1.7275h-0.5093l-0.5083 0.6582-0.5093 0.2461-0.7271-0.4102-0.0728-0.9053 0.1455-0.9873 1.0908-0.8223h0.8721l0.145-0.4941 1.0903 0.2461 0.7998 0.9883 0.1455-1.6465 1.3813-1.1514 0.5088-1.2344 1.0176-0.4111 0.5815-0.8223 1.3081-0.248 0.6548-0.9863h-1.9629l1.2358-0.5762h0.8716l1.2363-0.4121 0.1455-0.4922-0.4365-0.4121-0.5088-0.165 0.1455-0.4932-0.3633-0.7402-0.8726 0.3281 0.1455-0.6577-1.0176-0.5762-0.7993 1.3979 0.0723 0.4941-0.7993 0.3301-0.5093 1.0693-0.2178-0.9873-1.3813-0.5762-0.2183-0.7402 1.8174-1.0703 0.7998-0.7402 0.0728-0.9048-0.436-0.2471-0.5815-0.0825-0.3633 0.9053s-0.6079 0.1191-0.7642 0.1577c-1.9961 1.8394-6.0293 5.8101-6.9663 13.306 0.0371 0.1738 0.6792 1.1816 0.6792 1.1816l1.5264 0.9043 1.5264 0.4121 0.6548 0.8232 1.0171 0.7402 0.5815-0.082 0.436 0.1963v0.1328l-0.5811 1.563-0.4365 0.6582 0.1455 0.3301-0.3633 1.2324 1.3086 2.3867 1.3081 1.1523 0.582 0.8223-0.0732 1.7285 0.4365 0.9863-0.4365 1.8926s-0.0342-0.0117 0.0215 0.1777c0.0562 0.1895 2.3291 1.4512 2.4736 1.3438 0.144-0.1094 0.2671-0.2051 0.2671-0.2051l-0.145-0.4102 0.5811-0.5762 0.2183-0.5762 0.9453-0.3301 0.7266-1.8105-0.2178-0.4922 0.5078-0.7402 1.0908-0.248 0.582-1.3164-0.1455-1.6445 0.8721-1.2344 0.1455-1.2344c-1.1934-0.5918-2.377-1.2012-3.5615-1.8105" color="#000000"/><path d="m16.766 9.5649 0.7266 0.4937h0.582v-0.5757l-0.7266-0.3291-0.582 0.4111" color="#000000"/><path d="m14.876 8.9072-0.3638 0.9048h0.7271l0.3638-0.8228c0.3135-0.2217 0.6255-0.4448 0.9448-0.6582l0.7271 0.2471c0.4844 0.3291 0.9688 0.6582 1.4536 0.9868l0.7275-0.6577-0.8003-0.3291-0.3638-0.7407-1.3809-0.1646-0.0728-0.4116-0.6543 0.165-0.2904 0.5758-0.3638-0.7407-0.145 0.3291 0.0728 0.8228-0.5816 0.494" color="#000000"/></g><g color="#000000" opacity=".75"></g><g color="#000000"></g><g color="#000000" opacity=".75"></g><g color="#000000"><path d="m17.492 6.8496 0.3638-0.3286 0.7271-0.1646c0.498-0.2422 0.998-0.4053 1.5264-0.5762l-0.29-0.4937-0.9385 0.1348-0.4434 0.4419-0.731 0.106-0.6499 0.3052-0.3159 0.1528-0.1929 0.2583 0.9443 0.1641" color="#000000"/><path d="m18.728 14.666 0.4365-0.6582-0.6548-0.4932 0.2183 1.1514" color="#000000"/></g></g></g><path d="m42.975 23.486c0 10.166-8.2412 18.407-18.406 18.407-10.165 0-18.406-8.2412-18.406-18.407 0-10.165 8.2407-18.406 18.406-18.406 10.164 0 18.406 8.2402 18.406 18.406z" fill="none" stroke="url(#radialGradient6797-0)"/></g><g transform="rotate(-56.337 300.97 187.43)"><path d="m366.93 179.95c-1.9015 35.503-31.307 63.75-67.281 63.75-34.198 0-62.438-25.544-66.781-58.562-0.0649 1.2109-0.125 2.4293-0.125 3.6562 0 37.201 30.205 67.406 67.406 67.406s67.406-30.205 67.406-67.406c0-3.0038-0.24352-5.9436-0.625-8.8438z" fill="#2e3436"/><path d="m366.24 167.87c-1.9015 35.503-31.307 63.75-67.281 63.75-34.198 0-62.438-25.544-66.781-58.562-0.0649 1.2109-0.125 2.4293-0.125 3.6562 0 37.201 30.205 67.406 67.406 67.406s67.406-30.205 67.406-67.406c0-3.0038-0.24352-5.9436-0.625-8.8438z" fill="url(#radialGradient6799)"/></g></g><path d="m626.26 509.55c-22.77 12.514-47.391 22.012-68.897 36.575 28.202 3.769 49.122-26.387 77.686-19.847 17.569 3.6722 31.095 19.264 49.334 20.65 1.4862-8.7521-10.94-8.9752-15.83-13.704-13.746-7.743-27.431-15.876-40.781-24.478l-1.5121 0.80333z" fill="#fe1f0e" fill-rule="evenodd" opacity=".869" stroke="#000" stroke-width="1.8089"/></g></g></svg>
