<?xml version="1.0" encoding="UTF-8"?>
<svg width="264.75mm" height="48.11mm" version="1.1" viewBox="0 0 264.75 48.11" xmlns="http://www.w3.org/2000/svg" xmlns:xlink="http://www.w3.org/1999/xlink"><defs><linearGradient id="linearGradient4750-0-2"><stop stop-color="#fff" offset="0"/><stop stop-color="#fefefe" offset=".37931"/><stop stop-color="#1d1d1d" offset="1"/></linearGradient><radialGradient id="radialGradient26216-6" cx="15.116" cy="63.965" r="12.289" gradientTransform="scale(1.644 .60828)" gradientUnits="userSpaceOnUse"><stop offset="0"/><stop stop-opacity="0" offset="1"/></radialGradient><radialGradient id="radialGradient26218-4" cx="18.248" cy="15.716" r="29.993" gradientTransform="scale(.99999 1)" gradientUnits="userSpaceOnUse"><stop stop-color="#d3e9ff" offset="0"/><stop stop-color="#d3e9ff" offset=".15517"/><stop stop-color="#4074ae" offset=".75"/><stop stop-color="#36486c" offset="1"/></radialGradient><radialGradient id="radialGradient26220-3" cx="11.827" cy="10.476" r="32.665" gradientTransform="scale(1.1795 .84779)" gradientUnits="userSpaceOnUse"><stop stop-color="#fff" offset="0"/><stop stop-color="#fff" stop-opacity="0" offset="1"/></radialGradient><radialGradient id="radialGradient26222-7" cx="18.634" cy="17.486" r="40.693" fx="18.934" fy="17.81" gradientTransform="scale(1.0368 .96449)" gradientUnits="userSpaceOnUse" xlink:href="#linearGradient4750-0-2"/><radialGradient id="radialGradient26304-9" cx="15.601" cy="12.142" r="43.527" gradientTransform="scale(.99999 1)" gradientUnits="userSpaceOnUse"><stop stop-color="#fff" offset="0"/><stop stop-color="#fff" stop-opacity=".16495" offset="1"/></radialGradient><radialGradient id="radialGradient26306-6" cx="299.46" cy="206" r="67.406" gradientTransform="matrix(-1.5489 -6.9786e-8 8.5723e-8 -2.3162 763.3 683.12)" gradientUnits="userSpaceOnUse"><stop stop-color="#2e3436" offset="0"/><stop stop-color="#2e3436" stop-opacity="0" offset="1"/></radialGradient></defs><g transform="translate(-118.43 -260.26)"><g fill="#3e79bc" opacity=".86164" stroke="#000" stroke-width=".45262" aria-label="OpenSceneGraph"><path d="m182.23 275.91q1.1173 1.2278 1.7066 3.0081 0.60163 1.7803 0.60163 4.0395 0 2.2592-0.6139 4.0518-0.60163 1.7803-1.6944 2.9713-1.1296 1.2401-2.6766 1.8663-1.5348 0.62618-3.5115 0.62618-1.9277 0-3.5115-0.63846-1.5716-0.63846-2.6766-1.854t-1.7066-2.9836q-0.58935-1.768-0.58935-4.0395 0-2.2346 0.58935-4.0026 0.58935-1.7803 1.7189-3.045 1.0805-1.2032 2.6766-1.8417 1.6084-0.63846 3.4992-0.63846 1.9645 0 3.5238 0.65074 1.5716 0.63846 2.6643 1.8294zm-0.221 7.0476q0-3.5606-1.5962-5.4883-1.5962-1.9399-4.3587-1.9399-2.7871 0-4.3833 1.9399-1.5839 1.9277-1.5839 5.4883 0 3.5975 1.6207 5.5128 1.6207 1.9031 4.3464 1.9031t4.3342-1.9031q1.6207-1.9154 1.6207-5.5128zm18.27 2.1118q0 1.6698-0.47884 3.0572-0.47885 1.3751-1.3506 2.3328-0.81035 0.90858-1.9154 1.412-1.0928 0.49112-2.3206 0.49112-1.0682 0-1.9399-0.23328-0.85947-0.23328-1.7558-0.72441v5.7461h-2.3083v-18.773h2.3083v1.4365q0.92086-0.77352 2.0627-1.2892 1.1541-0.52795 2.4556-0.52795 2.4802 0 3.8553 1.8785 1.3874 1.8663 1.3874 5.1936zm-2.3819 0.0614q0-2.4802-0.84719-3.708t-2.603-1.2278q-0.99453 0-2.0013 0.42973-1.0068 0.42974-1.9277 1.1296v7.772q0.98225 0.44201 1.6821 0.60162 0.71213 0.15962 1.6084 0.15962 1.9277 0 3.0081-1.3015 1.0805-1.3015 1.0805-3.8553zm17.459 0.34378h-10.105q0 1.2646 0.38062 2.2101 0.38062 0.93313 1.0436 1.5348 0.63846 0.58934 1.5102 0.88402 0.88403 0.29467 1.9399 0.29467 1.3997 0 2.8117-0.55251 1.4243-0.56479 2.0259-1.105h0.12278v2.517q-1.1664 0.49112-2.3819 0.82263t-2.5538 0.33151q-3.4133 0-5.3287-1.8417-1.9154-1.854-1.9154-5.255 0-3.3642 1.8294-5.341 1.8417-1.9768 4.8376-1.9768 2.7748 0 4.2728 1.6207 1.5102 1.6207 1.5102 4.6043zm-2.2469-1.768q-0.0123-1.8172-0.92085-2.8117-0.8963-0.99452-2.738-0.99452-1.854 0-2.959 1.0928-1.0928 1.0927-1.2401 2.7134zm17.214 8.3859h-2.3083v-7.8089q0-0.94541-0.1105-1.768-0.11051-0.83491-0.40518-1.3015-0.30695-0.51568-0.88402-0.76124-0.57707-0.25784-1.4979-0.25784-0.94541 0-1.9768 0.46657-1.0314 0.46656-1.9768 1.191v10.24h-2.3083v-13.715h2.3083v1.5225q1.0805-0.8963 2.2346-1.3997t2.3697-0.5034q2.2223 0 3.3888 1.3383t1.1664 3.8553z"/><path d="m248.23 286.88q0 1.0682-0.5034 2.1118-0.49113 1.0436-1.3874 1.768-0.98224 0.78579-2.296 1.2278-1.3015 0.44201-3.1432 0.44201-1.9768 0-3.5606-0.36834-1.5716-0.36834-3.2046-1.0928v-3.045h0.17189q1.3874 1.1541 3.2046 1.7803 1.8172 0.62618 3.4133 0.62618 2.2592 0 3.5115-0.84718 1.2646-0.84719 1.2646-2.2592 0-1.2155-0.60162-1.7926-0.58935-0.57707-1.8049-0.8963-0.92085-0.24556-2.0013-0.40517-1.0682-0.15962-2.2714-0.40518-2.4311-0.51568-3.6098-1.7558-1.1664-1.2524-1.1664-3.2537 0-2.296 1.9399-3.7571 1.9399-1.4734 4.9235-1.4734 1.9277 0 3.5361 0.36835 1.6084 0.36834 2.8485 0.90857v2.8731h-0.17189q-1.0436-0.88402-2.7503-1.4611-1.6944-0.58935-3.4747-0.58935-1.9522 0-3.1432 0.81036-1.1787 0.81035-1.1787 2.0873 0 1.1419 0.58935 1.7926t2.075 0.99452q0.78579 0.1719 2.2346 0.41746 1.4488 0.24556 2.4556 0.5034 2.0382 0.54023 3.0695 1.633t1.0314 3.0572zm13.862 4.3587q-1.1541 0.55251-2.1978 0.85947-1.0314 0.30695-2.1978 0.30695-1.4856 0-2.7257-0.42973-1.2401-0.44201-2.1241-1.326-0.8963-0.88402-1.3874-2.2346-0.49112-1.3506-0.49112-3.1555 0-3.3642 1.8417-5.2796 1.854-1.9154 4.8867-1.9154 1.1787 0 2.3083 0.3315 1.1419 0.33151 2.0873 0.81036v2.5661h-0.12278q-1.0559-0.82263-2.1855-1.2646-1.1173-0.44201-2.1855-0.44201-1.9645 0-3.1064 1.326-1.1296 1.3138-1.1296 3.8676 0 2.4802 1.105 3.8185 1.1173 1.326 3.1309 1.326 0.69985 0 1.4243-0.18417t1.3015-0.47884q0.5034-0.25784 0.94541-0.54024 0.44201-0.29467 0.69985-0.5034h0.12278zm14.439-5.7584h-10.105q0 1.2646 0.38062 2.2101 0.38062 0.93313 1.0436 1.5348 0.63846 0.58934 1.5102 0.88402 0.88402 0.29467 1.9399 0.29467 1.3997 0 2.8117-0.55251 1.4242-0.56479 2.0259-1.105h0.12278v2.517q-1.1664 0.49112-2.382 0.82263t-2.5538 0.33151q-3.4133 0-5.3287-1.8417-1.9154-1.854-1.9154-5.255 0-3.3642 1.8294-5.341 1.8417-1.9768 4.8376-1.9768 2.7748 0 4.2728 1.6207 1.5102 1.6207 1.5102 4.6043zm-2.2469-1.768q-0.0123-1.8172-0.92086-2.8117-0.8963-0.99452-2.738-0.99452-1.854 0-2.959 1.0928-1.0928 1.0927-1.2401 2.7134zm17.214 8.3859h-2.3083v-7.8089q0-0.94541-0.1105-1.768-0.11051-0.83491-0.40518-1.3015-0.30695-0.51568-0.88402-0.76124-0.57707-0.25784-1.4979-0.25784-0.94541 0-1.9768 0.46657-1.0314 0.46656-1.9768 1.191v10.24h-2.3083v-13.715h2.3083v1.5225q1.0805-0.8963 2.2346-1.3997t2.3697-0.5034q2.2223 0 3.3888 1.3383t1.1664 3.8553zm15.925-6.6179h-10.105q0 1.2646 0.38062 2.2101 0.38062 0.93313 1.0436 1.5348 0.63846 0.58934 1.5102 0.88402 0.88402 0.29467 1.9399 0.29467 1.3997 0 2.8117-0.55251 1.4242-0.56479 2.0259-1.105h0.12278v2.517q-1.1664 0.49112-2.382 0.82263t-2.5538 0.33151q-3.4133 0-5.3287-1.8417-1.9154-1.854-1.9154-5.255 0-3.3642 1.8294-5.341 1.8417-1.9768 4.8376-1.9768 2.7748 0 4.2728 1.6207 1.5102 1.6207 1.5102 4.6043zm-2.2469-1.768q-0.0123-1.8172-0.92086-2.8117-0.8963-0.99452-2.738-0.99452-1.854 0-2.959 1.0928-1.0928 1.0927-1.2401 2.7134z"/><path d="m326.36 290.75q-1.4979 0.68757-3.2782 1.2032-1.768 0.5034-3.4256 0.5034-2.1364 0-3.9167-0.58935-1.7803-0.58934-3.0327-1.768-1.2646-1.191-1.9522-2.9713-0.68757-1.7926-0.68757-4.1868 0-4.3833 2.5538-6.9126 2.5661-2.5416 7.0353-2.5416 1.5593 0 3.18 0.38062 1.633 0.36835 3.5115 1.2646v2.8853h-0.22101q-0.38062-0.29467-1.105-0.77352-0.7244-0.47884-1.4242-0.79807-0.84719-0.38062-1.9277-0.62618-1.0682-0.25784-2.4311-0.25784-3.0695 0-4.8621 1.9768-1.7803 1.9645-1.7803 5.3287 0 3.5484 1.8663 5.5251 1.8663 1.9645 5.0831 1.9645 1.1787 0 2.3451-0.23328 1.1787-0.23329 2.0627-0.60163v-4.4815h-4.899v-2.1364h7.3054zm12.622-9.847h-0.12278q-0.51568-0.12278-1.0068-0.17189-0.47885-0.0614-1.1419-0.0614-1.0682 0-2.0627 0.47884-0.99452 0.46657-1.9154 1.2155v9.7365h-2.3083v-13.715h2.3083v2.0259q1.3751-1.105 2.4188-1.5593 1.0559-0.46656 2.1487-0.46656 0.60163 0 0.87175 0.0368 0.27012 0.0246 0.81035 0.1105zm12.389 11.198h-2.296v-1.4611q-0.30695 0.20872-0.83491 0.58934-0.51567 0.36835-1.0068 0.58935-0.57707 0.2824-1.326 0.46657-0.74896 0.19645-1.7558 0.19645-1.854 0-3.1432-1.2278t-1.2892-3.1309q0-1.5593 0.66302-2.517 0.67529-0.96996 1.9154-1.5225 1.2524-0.55251 3.0081-0.74896 1.7558-0.19645 3.7694-0.29467v-0.35607q0-0.78579-0.28239-1.3015-0.27012-0.51568-0.7858-0.81036-0.49112-0.28239-1.1787-0.38062-0.68758-0.0982-1.4365-0.0982-0.90858 0-2.0259 0.24556-1.1173 0.23328-2.3083 0.68757h-0.12278v-2.3451q0.67529-0.18417 1.9522-0.40518 1.2769-0.221 2.517-0.221 1.4488 0 2.517 0.24556 1.0805 0.23328 1.8663 0.81035 0.77352 0.56479 1.1787 1.4611 0.40517 0.8963 0.40517 2.2223zm-2.296-3.3765v-3.8185q-1.0559 0.0614-2.4924 0.18418-1.4242 0.12278-2.2592 0.35606-0.99453 0.2824-1.6084 0.88402-0.6139 0.58935-0.6139 1.633 0 1.1787 0.71213 1.7803 0.71212 0.58934 2.1732 0.58934 1.2155 0 2.2223-0.46656 1.0068-0.47885 1.8663-1.1419zm18.81-3.6466q0 1.6698-0.47885 3.0572-0.47884 1.3751-1.3506 2.3328-0.81036 0.90858-1.9154 1.412-1.0928 0.49112-2.3206 0.49112-1.0682 0-1.9399-0.23328-0.85946-0.23328-1.7558-0.72441v5.7461h-2.3083v-18.773h2.3083v1.4365q0.92085-0.77352 2.0627-1.2892 1.1541-0.52795 2.4556-0.52795 2.4802 0 3.8553 1.8785 1.3874 1.8663 1.3874 5.1936zm-2.382 0.0614q0-2.4802-0.84719-3.708-0.84718-1.2278-2.603-1.2278-0.99452 0-2.0013 0.42973-1.0068 0.42974-1.9277 1.1296v7.772q0.98224 0.44201 1.6821 0.60162 0.71213 0.15962 1.6084 0.15962 1.9277 0 3.0081-1.3015 1.0805-1.3015 1.0805-3.8553zm17.447 6.9617h-2.3083v-7.8089q0-0.94541-0.1105-1.768-0.11051-0.83491-0.40518-1.3015-0.30695-0.51568-0.88402-0.76124-0.57707-0.25784-1.4979-0.25784-0.94541 0-1.9768 0.46657-1.0314 0.46656-1.9768 1.191v10.24h-2.3083v-19.105h2.3083v6.9126q1.0805-0.8963 2.2346-1.3997t2.3697-0.5034q2.2223 0 3.3888 1.3383t1.1664 3.8553z"/></g><g transform="matrix(.26458 0 0 .26458 167.45 168.71)"><g><ellipse transform="matrix(3.975 0 0 3.4588 -203.78 367.42)" cx="24.85" cy="38.909" rx="20.203" ry="7.4751" fill="url(#radialGradient26216-6)"/><path d="m-33.481 408.03c-6.7884 21.66 1.7759 48.828-17.201 65.684-14.429 14.687-38.254 19.106-47.302 39.221 20.956-8.4549 39.331-22.451 58.975-33.61 7.2992-2.8849 11.694-7.3957 9.5443-15.488-0.6559-19.737 2.4068-39.649 1.0105-59.218-0.16967-8.3758-3.073 1.6106-5.0271 3.4107z" fill="#6d98c7" fill-rule="evenodd" opacity=".869" stroke="#000" stroke-width="1.809"/><path d="m-179.02 407.18c-2.5488 8.865 1.2432 19.873 0.6263 29.486 0.55348 12.232 0.8644 24.473 0.83859 36.718 22.893 12.41 44.254 27.966 68.099 38.387 1.6795-1.0167-4.3637-9.0102-7.7554-11.83-16.212-14.374-41.731-20.268-49.712-42.529-6.0344-16.709-0.38567-36.473-9.1528-52.316-0.5213-1.7009-2.1662 1.9526-2.9443 2.085z" fill="#8ac834" fill-rule="evenodd" opacity=".86924" stroke="#000" stroke-width="1.8089"/></g><g transform="matrix(.79186 0 0 .79186 -342.04 280.74)"><g transform="matrix(3.5269 0 0 3.5269 213.89 105.42)"><path d="m43.96 23.485c0 10.71-8.6821 19.392-19.39 19.392-10.709 0-19.391-8.6821-19.391-19.392 0-10.709 8.6816-19.39 19.391-19.39 10.708 0 19.39 8.6811 19.39 19.39z" fill="url(#radialGradient26218-4)" stroke="#39396c"/><ellipse transform="matrix(.83594 0 0 1 9.8869 0)" cx="17.779" cy="15.271" rx="12.93" ry="9.2934" fill="url(#radialGradient26220-3)" opacity=".42159"/><g transform="matrix(.98237 0 0 .98237 .12108 .23291)" fill-opacity=".71345"><path d="m44.071 20.714v0l-0.5449 0.6172c-0.334-0.3936-0.709-0.7246-1.0898-1.0703l-0.8359 0.123-0.7637-0.8633v1.0684l0.6543 0.4951 0.4355 0.4932 0.582-0.6582c0.1465 0.2744 0.291 0.5488 0.4365 0.8232v0.8223l-0.6553 0.7402-1.1992 0.8232-0.9082 0.9063-0.582-0.6602 0.291-0.7402-0.5811-0.6582-0.9814-2.0977-0.8359-0.9453-0.2188 0.2461 0.3281 1.1934 0.6172 0.6992c0.3525 1.0176 0.7012 1.9902 1.1641 2.9629 0.7178 0 1.3945-0.0762 2.1074-0.166v0.5762l-0.8721 2.1392-0.7998 0.9043-0.6543 1.4004v2.3027l0.2188 0.9063-0.3633 0.4102-0.8008 0.4941-0.8359 0.6992 0.6914 0.7813-0.9453 0.8242 0.1816 0.5332-1.418 1.6055h-0.9443l-0.7998 0.4941h-0.5098v-0.6582l-0.2168-1.3184c-0.2813-0.8262-0.5742-1.6465-0.8721-2.4668 0-0.6055 0.0361-1.2051 0.0723-1.8105l0.3643-0.8223-0.5098-0.9883 0.0371-1.3574-0.6914-0.7813 0.3457-1.1309-0.5625-0.6382h-0.9824l-0.3271-0.3701-0.9814 0.6177-0.3994-0.4536-0.9092 0.7817c-0.6172-0.6997-1.2354-1.3989-1.8535-2.0981l-0.7266-1.7285 0.6543-0.9863-0.3633-0.4111 0.7988-1.8936c0.6563-0.8164 1.3418-1.5996 2.0352-2.3857l1.2363-0.3291 1.3809-0.1641 0.9453 0.2471 1.3447 1.3564 0.4727-0.5342 0.6533-0.082 1.2363 0.4111h0.9453l0.6543-0.5762 0.291-0.4111-0.6553-0.4111-1.0908-0.082c-0.3027-0.4199-0.584-0.8613-0.9434-1.2344l-0.3643 0.1641-0.1455 1.0703-0.6543-0.7402-0.1445-0.8242-0.7266-0.5742h-0.292l0.7275 0.8223-0.291 0.7402-0.5811 0.1641 0.3633-0.7402-0.6553-0.3281-0.5801-0.6582-1.0918 0.2461-0.1445 0.3281-0.6543 0.4121-0.3633 0.9053-0.9082 0.4521-0.4004-0.4521h-0.4355v-1.4814l0.9453-0.4941h0.7266l-0.1465-0.5752-0.5801-0.5762 0.9805-0.2061 0.5449-0.6162 0.4355-0.7412h0.8008l-0.2188-0.5752 0.5098-0.3291v0.6582l1.0898 0.2461 1.0898-0.9043 0.0732-0.4121 0.9443-0.6577c-0.3418 0.0425-0.6836 0.0737-1.0176 0.1646v-0.7411l0.3633-0.8228h-0.3633l-0.7984 0.7402-0.2188 0.4116 0.2188 0.5767-0.3643 0.9863-0.5811-0.3291-0.5078-0.5752-0.8008 0.5752-0.291-1.3159 1.3809-0.9048v-0.4941l0.873-0.5757 1.3809-0.3296 0.9453 0.3296 1.7441 0.3291-0.4355 0.4932h-0.9453l0.9453 0.9873 0.7266-0.8223 0.2207-0.3618s2.7871 2.498 4.3799 5.2305c1.5928 2.7334 2.3408 5.9551 2.3408 6.6094z"/><path d="m26.07 9.2363-0.0732 0.4932 0.5098 0.3291 0.8711-0.5757-0.4355-0.4937-0.582 0.3296-0.29-0.0825"/><path d="m26.87 5.8633-1.8906-0.7407-2.1797 0.2466-2.6904 0.7402-0.5088 0.4941 1.6719 1.1514v0.6582l-0.6543 0.6582 0.873 1.729 0.5801-0.3301 0.7285-1.1514c1.123-0.3472 2.1299-0.7407 3.1973-1.2344l0.873-2.2212"/><path d="m28.833 12.775-0.291-0.7412-0.5098 0.165 0.1465 0.9043 0.6543-0.3281"/><path d="m29.123 12.609-0.1455 0.9883 0.7998-0.165 0.5811-0.5752-0.5088-0.4941c-0.1709-0.4551-0.3672-0.8799-0.5811-1.3164h-0.4355v0.4932l0.29 0.3291v0.7402"/><path d="m18.365 28.242-0.582-1.1523-1.0903-0.2466-0.5815-1.5625-1.4536 0.1641-1.2354-0.9043-1.3091 1.1514v0.1816c-0.396-0.1143-0.8828-0.1299-1.2354-0.3467l-0.291-0.8223v-0.9053l-0.8721 0.082c0.0728-0.5762 0.145-1.1514 0.2183-1.7275h-0.5093l-0.5083 0.6582-0.5093 0.2461-0.7271-0.4102-0.0728-0.9053 0.1455-0.9873 1.0908-0.8223h0.8721l0.145-0.4941 1.0903 0.2461 0.7998 0.9883 0.1455-1.6465 1.3813-1.1514 0.5088-1.2344 1.0176-0.4111 0.5815-0.8223 1.3081-0.248 0.6548-0.9863h-1.9629l1.2358-0.5762h0.8716l1.2363-0.4121 0.1455-0.4922-0.4365-0.4121-0.5088-0.165 0.1455-0.4932-0.3633-0.7402-0.8726 0.3281 0.1455-0.6577-1.0176-0.5762-0.7993 1.3979 0.0723 0.4941-0.7993 0.3301-0.5093 1.0693-0.2178-0.9873-1.3813-0.5762-0.2183-0.7402 1.8174-1.0703 0.7998-0.7402 0.0728-0.9048-0.436-0.2471-0.5815-0.0825-0.3633 0.9053s-0.6079 0.1191-0.7642 0.1577c-1.9961 1.8394-6.0293 5.8101-6.9663 13.306 0.0371 0.1738 0.6792 1.1816 0.6792 1.1816l1.5264 0.9043 1.5264 0.4121 0.6548 0.8232 1.0171 0.7402 0.5815-0.082 0.436 0.1963v0.1328l-0.5811 1.563-0.4365 0.6582 0.1455 0.3301-0.3633 1.2324 1.3086 2.3867 1.3081 1.1523 0.582 0.8223-0.0732 1.7285 0.4365 0.9863-0.4365 1.8926s-0.0342-0.0117 0.0215 0.1777c0.0562 0.1895 2.3291 1.4512 2.4736 1.3438 0.144-0.1094 0.2671-0.2051 0.2671-0.2051l-0.145-0.4102 0.5811-0.5762 0.2183-0.5762 0.9453-0.3301 0.7266-1.8105-0.2178-0.4922 0.5078-0.7402 1.0908-0.248 0.582-1.3164-0.1455-1.6445 0.8721-1.2344 0.1455-1.2344c-1.1934-0.5918-2.377-1.2012-3.5615-1.8105"/><path d="m16.766 9.5649 0.7266 0.4937h0.582v-0.5757l-0.7266-0.3291-0.582 0.4111"/><path d="m14.876 8.9072-0.3638 0.9048h0.7271l0.3638-0.8228c0.3135-0.2217 0.6255-0.4448 0.9448-0.6582l0.7271 0.2471c0.4844 0.3291 0.9688 0.6582 1.4536 0.9868l0.7275-0.6577-0.8003-0.3291-0.3638-0.7407-1.3809-0.1646-0.0728-0.4116-0.6543 0.165-0.2904 0.5758-0.3638-0.7407-0.145 0.3291 0.0728 0.8228-0.5816 0.494"/><g opacity=".75"></g><g opacity=".75"></g><path d="m17.492 6.8496 0.3638-0.3286 0.7271-0.1646c0.498-0.2422 0.998-0.4053 1.5264-0.5762l-0.29-0.4937-0.9385 0.1348-0.4434 0.4419-0.731 0.106-0.6499 0.3052-0.3159 0.1528-0.1929 0.2583 0.9443 0.1641"/><path d="m18.728 14.666 0.4365-0.6582-0.6548-0.4932 0.2183 1.1514"/></g><g transform="matrix(.98237 0 0 .98237 -.080952 .030883)" color="#000000" fill="url(#radialGradient26222-7)" stroke-width="1.018"><g color="#000000" fill="url(#radialGradient26222-7)"><g color="#000000"><path d="m44.071 20.714v0l-0.5449 0.6172c-0.334-0.3936-0.709-0.7246-1.0898-1.0703l-0.8359 0.123-0.7637-0.8633v1.0684l0.6543 0.4951 0.4355 0.4932 0.582-0.6582c0.1465 0.2744 0.291 0.5488 0.4365 0.8232v0.8223l-0.6553 0.7402-1.1992 0.8232-0.9082 0.9063-0.582-0.6602 0.291-0.7402-0.5811-0.6582-0.9814-2.0977-0.8359-0.9453-0.2188 0.2461 0.3281 1.1934 0.6172 0.6992c0.3525 1.0176 0.7012 1.9902 1.1641 2.9629 0.7178 0 1.3945-0.0762 2.1074-0.166v0.5762l-0.8721 2.1392-0.7998 0.9043-0.6543 1.4004v2.3027l0.2188 0.9063-0.3633 0.4102-0.8008 0.4941-0.8359 0.6992 0.6914 0.7813-0.9453 0.8242 0.1816 0.5332-1.418 1.6055h-0.9443l-0.7998 0.4941h-0.5098v-0.6582l-0.2168-1.3184c-0.2813-0.8262-0.5742-1.6465-0.8721-2.4668 0-0.6055 0.0361-1.2051 0.0723-1.8105l0.3643-0.8223-0.5098-0.9883 0.0371-1.3574-0.6914-0.7813 0.3457-1.1309-0.5625-0.6382h-0.9824l-0.3271-0.3701-0.9814 0.6177-0.3994-0.4536-0.9092 0.7817c-0.6172-0.6997-1.2354-1.3989-1.8535-2.0981l-0.7266-1.7285 0.6543-0.9863-0.3633-0.4111 0.7988-1.8936c0.6563-0.8164 1.3418-1.5996 2.0352-2.3857l1.2363-0.3291 1.3809-0.1641 0.9453 0.2471 1.3447 1.3564 0.4727-0.5342 0.6533-0.082 1.2363 0.4111h0.9453l0.6543-0.5762 0.291-0.4111-0.6553-0.4111-1.0908-0.082c-0.3027-0.4199-0.584-0.8613-0.9434-1.2344l-0.3643 0.1641-0.1455 1.0703-0.6543-0.7402-0.1445-0.8242-0.7266-0.5742h-0.292l0.7275 0.8223-0.291 0.7402-0.5811 0.1641 0.3633-0.7402-0.6553-0.3281-0.5801-0.6582-1.0918 0.2461-0.1445 0.3281-0.6543 0.4121-0.3633 0.9053-0.9082 0.4521-0.4004-0.4521h-0.4355v-1.4814l0.9453-0.4941h0.7266l-0.1465-0.5752-0.5801-0.5762 0.9805-0.2061 0.5449-0.6162 0.4355-0.7412h0.8008l-0.2188-0.5752 0.5098-0.3291v0.6582l1.0898 0.2461 1.0898-0.9043 0.0732-0.4121 0.9443-0.6577c-0.3418 0.0425-0.6836 0.0737-1.0176 0.1646v-0.7411l0.3633-0.8228h-0.3633l-0.7984 0.7402-0.2188 0.4116 0.2188 0.5767-0.3643 0.9863-0.5811-0.3291-0.5078-0.5752-0.8008 0.5752-0.291-1.3159 1.3809-0.9048v-0.4941l0.873-0.5757 1.3809-0.3296 0.9453 0.3296 1.7441 0.3291-0.4355 0.4932h-0.9453l0.9453 0.9873 0.7266-0.8223 0.2207-0.3618s2.7871 2.498 4.3799 5.2305c1.5928 2.7334 2.3408 5.9551 2.3408 6.6094z" color="#000000"/><path d="m26.07 9.2363-0.0732 0.4932 0.5098 0.3291 0.8711-0.5757-0.4355-0.4937-0.582 0.3296-0.29-0.0825" color="#000000"/><path d="m26.87 5.8633-1.8906-0.7407-2.1797 0.2466-2.6904 0.7402-0.5088 0.4941 1.6719 1.1514v0.6582l-0.6543 0.6582 0.873 1.729 0.5801-0.3301 0.7285-1.1514c1.123-0.3472 2.1299-0.7407 3.1973-1.2344l0.873-2.2212" color="#000000"/><path d="m28.833 12.775-0.291-0.7412-0.5098 0.165 0.1465 0.9043 0.6543-0.3281" color="#000000"/><path d="m29.123 12.609-0.1455 0.9883 0.7998-0.165 0.5811-0.5752-0.5088-0.4941c-0.1709-0.4551-0.3672-0.8799-0.5811-1.3164h-0.4355v0.4932l0.29 0.3291v0.7402" color="#000000"/><path d="m18.365 28.242-0.582-1.1523-1.0903-0.2466-0.5815-1.5625-1.4536 0.1641-1.2354-0.9043-1.3091 1.1514v0.1816c-0.396-0.1143-0.8828-0.1299-1.2354-0.3467l-0.291-0.8223v-0.9053l-0.8721 0.082c0.0728-0.5762 0.145-1.1514 0.2183-1.7275h-0.5093l-0.5083 0.6582-0.5093 0.2461-0.7271-0.4102-0.0728-0.9053 0.1455-0.9873 1.0908-0.8223h0.8721l0.145-0.4941 1.0903 0.2461 0.7998 0.9883 0.1455-1.6465 1.3813-1.1514 0.5088-1.2344 1.0176-0.4111 0.5815-0.8223 1.3081-0.248 0.6548-0.9863h-1.9629l1.2358-0.5762h0.8716l1.2363-0.4121 0.1455-0.4922-0.4365-0.4121-0.5088-0.165 0.1455-0.4932-0.3633-0.7402-0.8726 0.3281 0.1455-0.6577-1.0176-0.5762-0.7993 1.3979 0.0723 0.4941-0.7993 0.3301-0.5093 1.0693-0.2178-0.9873-1.3813-0.5762-0.2183-0.7402 1.8174-1.0703 0.7998-0.7402 0.0728-0.9048-0.436-0.2471-0.5815-0.0825-0.3633 0.9053s-0.6079 0.1191-0.7642 0.1577c-1.9961 1.8394-6.0293 5.8101-6.9663 13.306 0.0371 0.1738 0.6792 1.1816 0.6792 1.1816l1.5264 0.9043 1.5264 0.4121 0.6548 0.8232 1.0171 0.7402 0.5815-0.082 0.436 0.1963v0.1328l-0.5811 1.563-0.4365 0.6582 0.1455 0.3301-0.3633 1.2324 1.3086 2.3867 1.3081 1.1523 0.582 0.8223-0.0732 1.7285 0.4365 0.9863-0.4365 1.8926s-0.0342-0.0117 0.0215 0.1777c0.0562 0.1895 2.3291 1.4512 2.4736 1.3438 0.144-0.1094 0.2671-0.2051 0.2671-0.2051l-0.145-0.4102 0.5811-0.5762 0.2183-0.5762 0.9453-0.3301 0.7266-1.8105-0.2178-0.4922 0.5078-0.7402 1.0908-0.248 0.582-1.3164-0.1455-1.6445 0.8721-1.2344 0.1455-1.2344c-1.1934-0.5918-2.377-1.2012-3.5615-1.8105" color="#000000"/><path d="m16.766 9.5649 0.7266 0.4937h0.582v-0.5757l-0.7266-0.3291-0.582 0.4111" color="#000000"/><path d="m14.876 8.9072-0.3638 0.9048h0.7271l0.3638-0.8228c0.3135-0.2217 0.6255-0.4448 0.9448-0.6582l0.7271 0.2471c0.4844 0.3291 0.9688 0.6582 1.4536 0.9868l0.7275-0.6577-0.8003-0.3291-0.3638-0.7407-1.3809-0.1646-0.0728-0.4116-0.6543 0.165-0.2904 0.5758-0.3638-0.7407-0.145 0.3291 0.0728 0.8228-0.5816 0.494" color="#000000"/></g><g color="#000000" opacity=".75"></g><g color="#000000"></g><g color="#000000" opacity=".75"></g><g color="#000000"><path d="m17.492 6.8496 0.3638-0.3286 0.7271-0.1646c0.498-0.2422 0.998-0.4053 1.5264-0.5762l-0.29-0.4937-0.9385 0.1348-0.4434 0.4419-0.731 0.106-0.6499 0.3052-0.3159 0.1528-0.1929 0.2583 0.9443 0.1641" color="#000000"/><path d="m18.728 14.666 0.4365-0.6582-0.6548-0.4932 0.2183 1.1514" color="#000000"/></g></g></g><path d="m42.975 23.486c0 10.166-8.2412 18.407-18.406 18.407-10.165 0-18.406-8.2412-18.406-18.407 0-10.165 8.2407-18.406 18.406-18.406 10.164 0 18.406 8.2402 18.406 18.406z" fill="none" stroke="url(#radialGradient26304-9)"/></g><g transform="rotate(-56.337 300.97 187.43)"><path d="m366.93 179.95c-1.9015 35.503-31.307 63.75-67.281 63.75-34.198 0-62.438-25.544-66.781-58.562-0.0649 1.2109-0.125 2.4293-0.125 3.6562 0 37.201 30.205 67.406 67.406 67.406s67.406-30.205 67.406-67.406c0-3.0038-0.24352-5.9436-0.625-8.8438z" fill="#2e3436"/><path d="m366.24 167.87c-1.9015 35.503-31.307 63.75-67.281 63.75-34.198 0-62.438-25.544-66.781-58.562-0.0649 1.2109-0.125 2.4293-0.125 3.6562 0 37.201 30.205 67.406 67.406 67.406s67.406-30.205 67.406-67.406c0-3.0038-0.24352-5.9436-0.625-8.8438z" fill="url(#radialGradient26306-6)"/></g></g><path d="m-102.42 347.87c-22.77 12.514-47.391 22.012-68.897 36.575 28.202 3.769 49.122-26.387 77.686-19.847 17.569 3.6722 31.095 19.264 49.334 20.65 1.4862-8.7521-10.94-8.9752-15.83-13.704-13.746-7.743-27.431-15.876-40.781-24.478l-1.5121 0.80333z" fill="#fe1f0e" fill-rule="evenodd" opacity=".869" stroke="#000" stroke-width="1.8089"/></g></g></svg>
